# xmcd
#
# Track frame offsets:
# 150
# 19272
# 40912
# 59881
# 78111
# 92602
# 110475
# 133648
# 151951
# 167545
# 191430
# 210458
# 225285
# 238694
# 257934
# 273592
#
# Disc length: 3881 seconds
#
#
# Revision: 5
# Processed by: cddbd v1.5.1PL2 Copyright (c) Steve Scherf et al.
# Submitted via: FreeRIP 2.945 
#
DISCID=d20f2710
DTITLE=Vários - Black Total 2003
DYEAR=2003
DGENRE=Hip-Hop
TTITLE0=Cant Hold Us Down
TTITLE1=Dillema
TTITLE2=I'm Real
TTITLE3=I' Want
TTITLE4=In Da Club
TTITLE5=Swing
TTITLE6=What's Love(REMIX)
TTITLE7=Floetic
TTITLE8=You Belong To Me
TTITLE9=Lose Your Self
TTITLE10=All I Have
TTITLE11=Na On Da'n
TTITLE12=What's Up Gangsta
TTITLE13=Let Me Show You The Way
TTITLE14=Stood Up
TTITLE15=I' May Root
EXTD=
EXTT0=
EXTT1=
EXTT2=
EXTT3=
EXTT4=
EXTT5=
EXTT6=
EXTT7=
EXTT8=
EXTT9=
EXTT10=
EXTT11=
EXTT12=
EXTT13=
EXTT14=
EXTT15=
PLAYORDER=
